<svg width="24" height="19" viewBox="0 0 24 19" fill="none" xmlns="http://www.w3.org/2000/svg">
<path d="M17.9982 18.1428C16.5771 18.1428 15.425 16.9908 15.425 15.5697C15.425 14.1483 16.5771 12.9963 17.9982 12.9963C19.4195 12.9963 20.5715 14.1483 20.5715 15.5697C20.5715 16.9908 19.4195 18.1428 17.9982 18.1428Z" stroke="#CB2AD1" stroke-linecap="round" stroke-linejoin="round"/>
<path d="M5.99829 18.1428C4.57713 18.1428 3.42505 16.9908 3.42505 15.5697C3.42505 14.1485 4.57713 12.9963 5.99829 12.9963C7.41945 12.9963 8.57154 14.1485 8.57154 15.5697C8.57154 16.9908 7.41945 18.1428 5.99829 18.1428Z" stroke="#CB2AD1" stroke-linecap="round" stroke-linejoin="round"/>
<path d="M3.42861 15.5715H0.857178V12.1429C0.857178 10.2494 2.3922 8.71436 4.28575 8.71436H7.71432C9.60787 8.71436 11.1429 10.2494 11.1429 12.1429V13.0001C11.1429 14.4202 12.2942 15.5715 13.7143 15.5715H15.4286H8.57146" stroke="#CB2AD1" stroke-linecap="round" stroke-linejoin="round"/>
<path d="M20.5714 15.5715H21.4285C22.3753 15.5715 23.1632 14.7968 22.9849 13.867C22.4171 10.9045 20.3415 8.71436 17.1428 8.71436H16.2856" stroke="#CB2AD1" stroke-linecap="round" stroke-linejoin="round"/>
<path d="M13.7144 1H16.2858V13.6489" stroke="#CB2AD1" stroke-linecap="round" stroke-linejoin="round"/>
<path d="M19.7142 2.71436H17.9999C17.0532 2.71436 16.2856 3.48188 16.2856 4.42864C16.2856 5.37541 17.0532 6.14293 17.9999 6.14293H19.7142V2.71436Z" stroke="#CB2AD1" stroke-linecap="round" stroke-linejoin="round"/>
<path d="M2.57146 8.71429H6.85718C7.80394 8.71429 8.57146 7.94677 8.57146 7V2.71429C8.57146 1.76752 7.80394 1 6.85718 1H2.57146C1.62469 1 0.857178 1.76752 0.857178 2.71429V7C0.857178 7.94677 1.62469 8.71429 2.57146 8.71429Z" stroke="#CB2AD1" stroke-linecap="round"/>
</svg>
