<svg width="24" height="24" viewBox="0 0 24 24" fill="none" xmlns="http://www.w3.org/2000/svg">
<g clip-path="url(#clip0_22_3001)">
<path d="M23.1429 9.42862C23.1429 9.20129 23.0525 8.98327 22.8919 8.82254C22.7311 8.66179 22.5131 8.57148 22.2857 8.57148H21.4286V6.00005C21.4286 5.54539 21.2479 5.10936 20.9265 4.78786C20.6051 4.46638 20.1689 4.28577 19.7143 4.28577H2.57146C2.1168 4.28577 1.68077 4.46638 1.35928 4.78786C1.03779 5.10936 0.857178 5.54539 0.857178 6.00005V18.0001C0.857178 18.4547 1.03779 18.8908 1.35928 19.2122C1.68077 19.5337 2.1168 19.7143 2.57146 19.7143H19.7143C20.1689 19.7143 20.6051 19.5337 20.9265 19.2122C21.2479 18.8908 21.4286 18.4547 21.4286 18.0001V15.4286H22.2857C22.5131 15.4286 22.7311 15.3383 22.8919 15.1776C23.0525 15.0168 23.1429 14.7988 23.1429 14.5715V9.42862Z" stroke="#00C7BE" stroke-width="2" stroke-linecap="round" stroke-linejoin="round"/>
<path d="M5.57153 8.57153V15.4287" stroke="#00C7BE" stroke-width="2" stroke-linecap="round" stroke-linejoin="round"/>
</g>
<defs>
<clipPath id="clip0_22_3001">
<rect width="24" height="24" fill="white"/>
</clipPath>
</defs>
</svg>
