<svg width="42" height="55" viewBox="0 0 42 55" fill="none" xmlns="http://www.w3.org/2000/svg">
<path fill-rule="evenodd" clip-rule="evenodd" d="M21 0C32.598 0 42 9.40202 42 21C42 22.4157 41.8599 23.7986 41.5929 25.1358C39.7394 39.1032 21.1104 55 21.1104 55C21.1104 55 5.25689 41.4717 1.34456 28.4096C0.475507 26.1054 0 23.6083 0 21C0 9.40202 9.40202 0 21 0Z" fill="#CB2AD1"/>
<path d="M38 21C38 11.6112 30.3888 4 21 4C11.6112 4 4 11.6112 4 21C4 30.3888 11.6112 38 21 38C30.3888 38 38 30.3888 38 21Z" fill="white"/>
<path d="M26.9982 32.1427C25.5771 32.1427 24.425 30.9907 24.425 29.5695C24.425 28.1482 25.5771 26.9962 26.9982 26.9962C28.4195 26.9962 29.5715 28.1482 29.5715 29.5695C29.5715 30.9907 28.4195 32.1427 26.9982 32.1427Z" stroke="#CB2AD1" stroke-linecap="round" stroke-linejoin="round"/>
<path d="M14.9983 32.1427C13.5771 32.1427 12.425 30.9907 12.425 29.5695C12.425 28.1484 13.5771 26.9962 14.9983 26.9962C16.4195 26.9962 17.5715 28.1484 17.5715 29.5695C17.5715 30.9907 16.4195 32.1427 14.9983 32.1427Z" stroke="#CB2AD1" stroke-linecap="round" stroke-linejoin="round"/>
<path d="M12.4286 29.5714H9.85718V26.1429C9.85718 24.2493 11.3922 22.7143 13.2857 22.7143H16.7143C18.6079 22.7143 20.1429 24.2493 20.1429 26.1429V27C20.1429 28.4201 21.2942 29.5714 22.7143 29.5714H24.4286H17.5715" stroke="#CB2AD1" stroke-linecap="round" stroke-linejoin="round"/>
<path d="M29.5714 29.5714H30.4285C31.3753 29.5714 32.1632 28.7968 31.9849 27.8669C31.4171 24.9044 29.3415 22.7143 26.1428 22.7143H25.2856" stroke="#CB2AD1" stroke-linecap="round" stroke-linejoin="round"/>
<path d="M22.7144 15H25.2858V27.6489" stroke="#CB2AD1" stroke-linecap="round" stroke-linejoin="round"/>
<path d="M28.7142 16.7143H26.9999C26.0532 16.7143 25.2856 17.4818 25.2856 18.4286C25.2856 19.3753 26.0532 20.1429 26.9999 20.1429H28.7142V16.7143Z" stroke="#CB2AD1" stroke-linecap="round" stroke-linejoin="round"/>
<path d="M11.5715 22.7143H15.8572C16.8039 22.7143 17.5715 21.9468 17.5715 21V16.7143C17.5715 15.7675 16.8039 15 15.8572 15H11.5715C10.6247 15 9.85718 15.7675 9.85718 16.7143V21C9.85718 21.9468 10.6247 22.7143 11.5715 22.7143Z" stroke="#CB2AD1" stroke-linecap="round"/>
</svg>
