<svg width="24" height="24" viewBox="0 0 24 24" fill="none" xmlns="http://www.w3.org/2000/svg">
<path d="M17.9981 23.1426C16.577 23.1426 15.425 21.9906 15.425 20.5694C15.425 19.1481 16.577 17.9961 17.9981 17.9961C19.4194 17.9961 20.5714 19.1481 20.5714 20.5694C20.5714 21.9906 19.4194 23.1426 17.9981 23.1426Z" stroke="#B5B5B5" stroke-linecap="round" stroke-linejoin="round"/>
<path d="M5.99817 23.1426C4.57701 23.1426 3.42493 21.9906 3.42493 20.5694C3.42493 19.1483 4.57701 17.9961 5.99817 17.9961C7.41933 17.9961 8.57142 19.1483 8.57142 20.5694C8.57142 21.9906 7.41933 23.1426 5.99817 23.1426Z" stroke="#B5B5B5" stroke-linecap="round" stroke-linejoin="round"/>
<path d="M3.42858 20.5715H0.857147V17.1429C0.857147 15.2494 2.39217 13.7144 4.28572 13.7144H7.71429C9.60784 13.7144 11.1429 15.2494 11.1429 17.1429V18.0001C11.1429 19.4202 12.2941 20.5715 13.7143 20.5715H15.4286H8.57143" stroke="#B5B5B5" stroke-linecap="round" stroke-linejoin="round"/>
<path d="M20.5714 20.5715H21.4286C22.3754 20.5715 23.1632 19.7968 22.985 18.867C22.4172 15.9045 20.3415 13.7144 17.1428 13.7144H16.2857" stroke="#B5B5B5" stroke-linecap="round" stroke-linejoin="round"/>
<path d="M13.7143 6H16.2857V18.6489" stroke="#B5B5B5" stroke-linecap="round" stroke-linejoin="round"/>
<path d="M19.7143 7.71436H18C17.0532 7.71436 16.2857 8.48188 16.2857 9.42864C16.2857 10.3754 17.0532 11.1429 18 11.1429H19.7143V7.71436Z" stroke="#B5B5B5" stroke-linecap="round" stroke-linejoin="round"/>
<path d="M2.57143 13.7143H6.85715C7.80391 13.7143 8.57143 12.9468 8.57143 12V7.71429C8.57143 6.76752 7.80391 6 6.85715 6H2.57143C1.62466 6 0.857147 6.76752 0.857147 7.71429V12C0.857147 12.9468 1.62466 13.7143 2.57143 13.7143Z" stroke="#B5B5B5" stroke-linecap="round"/>
</svg>
